<svg xmlns="http://www.w3.org/2000/svg" xmlns:xlink="http://www.w3.org/1999/xlink" width="500" zoomAndPan="magnify" viewBox="0 0 375 374.999991" height="500" preserveAspectRatio="xMidYMid meet" version="1.0"><defs><clipPath id="c0a6aafcbb"><path d="M 0.0351562 251.449219 L 154.90625 251.449219 L 154.90625 297.242188 L 0.0351562 297.242188 Z M 0.0351562 251.449219 " clip-rule="nonzero"/></clipPath><clipPath id="7d3f02dbc7"><path d="M 220 77.734375 L 374.957031 77.734375 L 374.957031 123.078125 L 220 123.078125 Z M 220 77.734375 " clip-rule="nonzero"/></clipPath><clipPath id="6770ca9884"><path d="M 0.0351562 77.734375 L 374.957031 77.734375 L 374.957031 297.242188 L 0.0351562 297.242188 Z M 0.0351562 77.734375 " clip-rule="nonzero"/></clipPath></defs><g clip-path="url(#c0a6aafcbb)"><path fill="#0190fe" d="M 43.320312 251.957031 L 0.0351562 251.957031 L 0.0351562 297.242188 L 91.953125 297.242188 C 121.207031 297.242188 146.007812 278.265625 154.761719 251.957031 L 43.320312 251.957031 " fill-opacity="1" fill-rule="nonzero"/></g><g clip-path="url(#7d3f02dbc7)"><path fill="#0190fe" d="M 283.035156 77.734375 C 253.785156 77.734375 228.984375 96.710938 220.230469 123.019531 L 374.957031 123.019531 L 374.957031 77.734375 L 283.035156 77.734375 " fill-opacity="1" fill-rule="nonzero"/></g><g clip-path="url(#6770ca9884)"><path fill="#0190fe" d="M 308.757812 164.847656 L 77.398438 164.847656 L 77.398438 177.253906 L 27.359375 143.933594 L 77.398438 110.613281 L 77.398438 123.019531 L 158.15625 123.019531 L 158.15625 77.734375 L 66.234375 77.734375 C 29.675781 77.734375 0.0351562 107.371094 0.0351562 143.933594 C 0.0351562 180.492188 29.675781 210.132812 66.234375 210.132812 L 297.59375 210.132812 L 297.59375 197.722656 L 347.632812 231.046875 L 297.59375 264.367188 L 297.59375 251.957031 L 216.839844 251.957031 L 216.839844 297.242188 L 308.757812 297.242188 C 345.316406 297.242188 374.953125 267.605469 374.953125 231.046875 C 374.953125 194.484375 345.316406 164.847656 308.757812 164.847656 " fill-opacity="1" fill-rule="nonzero"/></g></svg>